<?xml version="1.0" encoding="UTF-8"?>
<svg  viewBox="0 0 72 72" version="1.1" xmlns="http://www.w3.org/2000/svg" xmlns:xlink="http://www.w3.org/1999/xlink">
    <!-- Generator: Sketch 49.2 (51160) - http://www.bohemiancoding.com/sketch -->
    <title>Paypal</title>
    <desc>Created with Sketch.</desc>
    <defs></defs>
    <g id="Page-1" stroke="none" stroke-width="1" fill="none" fill-rule="evenodd">
        <g id="Social-Icons---Squared-Black" transform="translate(-152.000000, -603.000000)">
            <g id="Paypal" transform="translate(152.000000, 603.000000)">
                <polygon id="Square" fill="#000000" points="0 72 72 72 72 0 0 0"></polygon>
                <path d="M50.9116697,15.6194434 C52.9468267,17.9204075 53.5138281,20.4568679 52.9513627,24.1948095 C52.9513627,24.1948095 52.8561065,24.7693005 52.7971383,25.0692958 C50.8149015,35.170138 44.0305407,38.6620834 35.3637353,38.6620834 L30.9532205,38.6620834 C29.8948179,38.6620834 28.9997116,39.4270715 28.8333912,40.4635553 L28.9059674,40.0045624 L26.5744577,54.6743332 L17.2922668,54.6743332 C16.4984648,54.6743332 15.8921513,53.9708442 16.0161356,53.1938563 L22.2773431,13.8014719 C22.4436635,12.764988 23.3448177,12 24.4047323,12 L39.4400974,12 C44.6217342,12 48.6708802,13.085983 50.9116697,15.6194434 Z M55.3010165,26.1080296 C57.0216768,28.257496 57.3558296,31.2304495 56.6603079,34.7763941 C54.9260396,43.6112561 48.989913,46.6667083 41.4102383,46.6667083 L40.2384354,46.6667083 C39.3130891,46.6667083 38.5238231,47.3356979 38.3801828,48.2431837 L38.2849265,48.7546757 L36.8092109,58.0275308 L36.7336107,58.4235246 C36.5884584,59.3310105 35.8007044,60 34.8738461,60 L28.4584143,60 L31.4083336,41.3162919 L35.3637353,41.3162919 C46.2713302,41.3162919 53.1448992,36.0528742 55.3010165,26.1080296 Z" fill="#FFFFFF"></path>
            </g>
        </g>
    </g>
</svg>